<?xml version="1.0" standalone="no"?>
<!DOCTYPE svg PUBLIC "-//W3C//DTD SVG 20010904//EN"
 "http://www.w3.org/TR/2001/REC-SVG-20010904/DTD/svg10.dtd">
<svg version="1.0" xmlns="http://www.w3.org/2000/svg"
 width="1024.000000pt" height="1024.000000pt" viewBox="0 0 1024.000000 1024.000000"
 preserveAspectRatio="xMidYMid meet">

<g transform="translate(0.000000,1024.000000) scale(0.100000,-0.100000)"
fill="#000000" stroke="none">
<path d="M4950 9224 c-458 -31 -829 -124 -1220 -306 -283 -132 -635 -365 -867
-575 -100 -91 -125 -141 -102 -206 18 -50 54 -78 110 -84 50 -6 42 -10 261
156 251 190 549 377 745 465 448 201 863 278 1327 247 294 -20 474 -54 721
-136 299 -99 580 -238 805 -399 303 -215 559 -469 717 -711 36 -55 81 -123
100 -151 32 -49 64 -71 130 -89 34 -9 109 28 133 67 39 62 11 146 -108 324
-105 156 -231 304 -406 479 -216 216 -387 353 -622 497 -333 205 -757 351
-1174 403 -123 15 -443 26 -550 19z"/>
<path d="M4680 8620 c-832 -111 -1532 -541 -2239 -1376 -164 -194 -201 -250
-201 -311 0 -67 69 -133 139 -133 49 0 107 55 261 245 478 593 1023 999 1581
1180 617 200 1085 182 1707 -66 325 -130 543 -278 828 -563 240 -242 381 -438
544 -761 176 -347 264 -667 289 -1050 12 -169 4 -354 -24 -590 -27 -236 -28
-273 -6 -378 34 -171 95 -267 233 -374 133 -102 228 -128 299 -80 42 28 59 60
59 114 0 52 -25 83 -129 162 -109 83 -157 139 -176 204 -14 50 -14 71 7 303
15 176 22 323 22 504 0 242 -2 264 -32 432 -76 433 -185 752 -359 1059 -155
275 -278 436 -512 670 -328 327 -577 491 -968 638 -247 92 -476 149 -711 176
-170 20 -442 18 -612 -5z"/>
<path d="M4660 8070 c-474 -58 -917 -282 -1394 -705 -117 -104 -274 -280 -500
-560 -263 -328 -374 -452 -546 -615 -80 -75 -149 -149 -157 -167 -42 -100 19
-193 126 -193 34 0 51 9 113 59 40 32 136 124 213 203 143 145 209 222 505
589 364 450 699 738 1088 933 451 227 1016 244 1513 46 529 -211 911 -575
1171 -1117 186 -388 232 -710 197 -1376 -20 -369 11 -588 110 -792 68 -139
136 -238 223 -321 164 -158 418 -289 583 -301 59 -4 75 -1 103 17 38 23 62 73
62 125 0 68 -40 117 -114 141 -28 9 -105 42 -171 75 -252 123 -388 276 -474
534 -45 137 -52 228 -36 445 44 568 25 891 -71 1207 -178 588 -533 1085 -992
1393 -267 179 -600 309 -922 361 -143 23 -505 34 -630 19z"/>
<path d="M4655 7494 c-197 -30 -341 -76 -516 -165 -370 -188 -633 -442 -991
-954 -256 -366 -381 -520 -576 -706 -139 -133 -267 -227 -407 -300 -144 -75
-185 -118 -185 -196 0 -50 18 -82 59 -110 49 -33 94 -29 187 16 183 89 400
258 615 477 163 167 301 338 475 591 181 262 304 415 473 583 201 200 365 312
576 394 192 74 435 115 600 101 403 -33 837 -255 1068 -544 345 -433 455 -892
346 -1441 -39 -196 -118 -391 -245 -607 -124 -210 -157 -334 -134 -489 25
-164 98 -313 243 -494 267 -333 637 -622 1101 -860 154 -79 183 -90 228 -90
47 0 54 4 94 44 38 37 44 49 44 85 0 57 -21 103 -62 134 -18 14 -91 53 -161
86 -257 121 -443 237 -666 415 -238 189 -424 398 -505 566 -40 82 -41 88 -41
185 0 88 3 106 27 155 15 30 47 75 72 99 l44 44 26 -51 c14 -28 43 -97 64
-154 112 -297 270 -519 517 -726 180 -151 366 -257 566 -323 149 -49 205 -57
248 -35 67 35 90 120 51 196 -24 47 -37 55 -205 115 -261 94 -404 182 -580
359 -212 213 -340 450 -397 738 -26 136 -28 262 -10 628 19 405 -6 725 -74
943 -83 260 -196 462 -376 672 -288 334 -657 538 -1111 615 -140 24 -344 25
-482 4z"/>
<path d="M4705 6933 c-79 -11 -232 -55 -307 -89 -338 -151 -515 -324 -900
-880 -382 -551 -815 -960 -1309 -1236 -139 -78 -163 -106 -156 -187 3 -47 9
-59 40 -87 37 -34 90 -50 129 -40 33 8 185 96 316 183 295 195 670 535 914
827 59 70 183 234 275 364 217 306 304 415 422 533 151 148 316 249 497 301
69 20 101 23 244 22 190 0 265 -16 407 -83 120 -58 188 -108 283 -208 124
-130 194 -261 248 -462 23 -86 25 -114 26 -276 0 -149 -4 -198 -22 -283 -42
-194 -115 -355 -259 -569 -231 -344 -539 -648 -1067 -1052 -458 -350 -1144
-810 -1561 -1046 -66 -38 -131 -78 -144 -89 -75 -66 -65 -208 18 -251 60 -31
95 -21 240 67 481 290 1219 787 1716 1156 77 57 170 119 207 138 212 107 432
96 573 -27 21 -19 117 -126 214 -239 97 -113 230 -261 296 -329 250 -257 613
-546 977 -777 208 -132 242 -143 319 -103 67 33 89 127 46 193 -9 12 -106 81
-217 152 -499 320 -850 626 -1211 1054 -264 313 -347 379 -517 414 -41 8 -76
17 -79 20 -7 7 10 28 141 179 354 410 543 753 601 1090 47 277 19 602 -72 832
-194 490 -648 799 -1165 794 -73 -1 -146 -4 -163 -6z"/>
<path d="M4771 6367 c-88 -10 -214 -54 -296 -104 -199 -121 -336 -274 -615
-683 -158 -232 -197 -283 -309 -415 -322 -375 -738 -723 -1107 -926 -258 -142
-277 -153 -297 -180 -43 -59 -28 -168 27 -204 39 -26 108 -30 158 -10 75 30
239 125 393 228 256 171 437 318 685 555 320 306 418 420 702 817 264 370 370
487 506 558 101 54 189 71 280 58 341 -51 476 -419 291 -798 -76 -155 -195
-306 -424 -541 -415 -425 -853 -784 -1400 -1147 -232 -153 -378 -246 -753
-476 -89 -55 -111 -73 -130 -110 -71 -134 55 -267 188 -199 158 81 972 609
1253 814 547 398 1129 939 1371 1276 179 248 252 430 263 656 7 149 -7 256
-52 381 -107 299 -410 486 -734 450z"/>
<path d="M4737 5749 c-43 -20 -51 -29 -83 -96 -51 -108 -108 -193 -242 -359
-543 -674 -1206 -1238 -1932 -1644 -157 -88 -185 -107 -203 -145 -19 -41 -22
-103 -6 -138 19 -41 82 -70 142 -65 124 11 710 385 1117 712 489 394 999 922
1262 1309 163 240 186 354 85 416 -52 32 -86 34 -140 10z"/>
<path d="M5085 3399 c-97 -24 -241 -111 -675 -411 -433 -298 -771 -523 -1020
-677 -118 -73 -232 -144 -252 -157 -50 -32 -72 -76 -72 -144 0 -65 23 -106 71
-126 62 -27 91 -19 219 59 136 84 591 388 989 661 666 457 747 506 827 506
104 -1 191 -62 392 -275 286 -303 969 -889 1223 -1048 60 -38 117 -37 172 3
45 33 61 63 61 114 0 85 -12 97 -283 285 -326 226 -704 554 -1022 886 -250
262 -349 327 -505 332 -47 1 -103 -2 -125 -8z"/>
<path d="M4962 2649 c-185 -32 -332 -115 -752 -423 -113 -82 -299 -217 -415
-299 -115 -82 -222 -161 -237 -175 -54 -50 -61 -179 -14 -227 29 -29 94 -40
143 -24 20 6 109 67 197 133 343 259 802 592 905 654 162 100 330 108 496 25
126 -64 176 -105 426 -349 254 -249 583 -533 654 -565 59 -27 117 -25 155 7
63 54 79 133 37 195 -12 19 -90 85 -172 147 -224 168 -330 260 -546 469 -203
197 -307 277 -460 354 -138 69 -299 99 -417 78z"/>
<path d="M4874 2011 c-112 -32 -184 -80 -449 -301 -295 -245 -357 -319 -341
-404 14 -73 91 -125 157 -106 70 20 109 51 391 308 191 175 313 242 412 228
111 -17 249 -123 456 -351 225 -248 211 -235 264 -235 110 0 174 73 158 179
-9 63 -449 503 -612 613 -39 26 -100 57 -136 68 -83 25 -213 26 -300 1z"/>
</g>
</svg>
